<mxfile host="app.diagrams.net" modified="2022-11-18T06:21:04.144Z" agent="5.0 (Windows NT 10.0; Win64; x64) AppleWebKit/537.36 (KHTML, like Gecko) Chrome/107.0.0.0 Safari/537.36" etag="PpvuLj0SSRgmlexToS2n" version="20.5.3" type="github">
  <diagram id="f5yUyD6KKq8jayXpuYPE" name="Страница 1">
    <mxGraphModel dx="1662" dy="794" grid="1" gridSize="10" guides="1" tooltips="1" connect="1" arrows="1" fold="1" page="1" pageScale="1" pageWidth="2339" pageHeight="3300" math="0" shadow="0">
      <root>
        <mxCell id="0" />
        <mxCell id="1" parent="0" />
        <mxCell id="iyEZ0BcaZ3wanud6Fexl-11" value="Пользователь" style="swimlane;fillColor=#FFFFFF;startSize=23;" parent="1" vertex="1">
          <mxGeometry x="90" y="370" width="520" height="360" as="geometry" />
        </mxCell>
        <mxCell id="xzQSS38ygDuXOROJ9pQp-28" value="Обзор общей карты &#xa;города в&#xa; виде областей" style="swimlane;fontStyle=1;align=center;verticalAlign=top;childLayout=stackLayout;horizontal=1;startSize=60;horizontalStack=0;resizeParent=1;resizeParentMax=0;resizeLast=0;collapsible=1;marginBottom=0;" vertex="1" parent="iyEZ0BcaZ3wanud6Fexl-11">
          <mxGeometry x="320" y="160" width="160" height="160" as="geometry">
            <mxRectangle x="310" y="40" width="160" height="60" as="alternateBounds" />
          </mxGeometry>
        </mxCell>
        <mxCell id="xzQSS38ygDuXOROJ9pQp-29" value="цвет области зависит &#xa;от процентности" style="text;strokeColor=none;fillColor=none;align=left;verticalAlign=top;spacingLeft=4;spacingRight=4;overflow=hidden;rotatable=0;points=[[0,0.5],[1,0.5]];portConstraint=eastwest;" vertex="1" parent="xzQSS38ygDuXOROJ9pQp-28">
          <mxGeometry y="60" width="160" height="40" as="geometry" />
        </mxCell>
        <mxCell id="xzQSS38ygDuXOROJ9pQp-30" value="" style="line;strokeWidth=1;fillColor=none;align=left;verticalAlign=middle;spacingTop=-1;spacingLeft=3;spacingRight=3;rotatable=0;labelPosition=right;points=[];portConstraint=eastwest;strokeColor=inherit;" vertex="1" parent="xzQSS38ygDuXOROJ9pQp-28">
          <mxGeometry y="100" width="160" height="8" as="geometry" />
        </mxCell>
        <mxCell id="xzQSS38ygDuXOROJ9pQp-31" value="область может измениться &#xa;при выборе другой&#xa;категории заведения&#xa;" style="text;strokeColor=none;fillColor=none;align=left;verticalAlign=top;spacingLeft=4;spacingRight=4;overflow=hidden;rotatable=0;points=[[0,0.5],[1,0.5]];portConstraint=eastwest;" vertex="1" parent="xzQSS38ygDuXOROJ9pQp-28">
          <mxGeometry y="108" width="160" height="52" as="geometry" />
        </mxCell>
        <mxCell id="xzQSS38ygDuXOROJ9pQp-37" value="Выбор места &lt;br&gt;предполагаемой&lt;br&gt;постройки заведения" style="html=1;" vertex="1" parent="iyEZ0BcaZ3wanud6Fexl-11">
          <mxGeometry x="140" y="50" width="130" height="61" as="geometry" />
        </mxCell>
        <mxCell id="iyEZ0BcaZ3wanud6Fexl-12" value="Собираемые данные" style="swimlane;fillColor=#FFFFFF;" parent="1" vertex="1">
          <mxGeometry x="610" y="10" width="520" height="360" as="geometry" />
        </mxCell>
        <mxCell id="xzQSS38ygDuXOROJ9pQp-1" value="Количество конкурентов" style="rounded=0;whiteSpace=wrap;html=1;" vertex="1" parent="iyEZ0BcaZ3wanud6Fexl-12">
          <mxGeometry x="50" y="50" width="120" height="60" as="geometry" />
        </mxCell>
        <mxCell id="xzQSS38ygDuXOROJ9pQp-2" value="Потоки людей" style="rounded=0;whiteSpace=wrap;html=1;" vertex="1" parent="iyEZ0BcaZ3wanud6Fexl-12">
          <mxGeometry x="300" y="50" width="120" height="60" as="geometry" />
        </mxCell>
        <mxCell id="xzQSS38ygDuXOROJ9pQp-3" value="Цена аренды" style="rounded=0;whiteSpace=wrap;html=1;" vertex="1" parent="iyEZ0BcaZ3wanud6Fexl-12">
          <mxGeometry x="50" y="140" width="120" height="60" as="geometry" />
        </mxCell>
        <mxCell id="xzQSS38ygDuXOROJ9pQp-4" value="Близстоящие организации" style="rounded=0;whiteSpace=wrap;html=1;" vertex="1" parent="iyEZ0BcaZ3wanud6Fexl-12">
          <mxGeometry x="300" y="140" width="120" height="60" as="geometry" />
        </mxCell>
        <mxCell id="xzQSS38ygDuXOROJ9pQp-16" value="Формула выгодности постройки заведения общественного питания" style="rounded=0;whiteSpace=wrap;html=1;" vertex="1" parent="iyEZ0BcaZ3wanud6Fexl-12">
          <mxGeometry x="180" y="250" width="130" height="70" as="geometry" />
        </mxCell>
        <mxCell id="xzQSS38ygDuXOROJ9pQp-24" value="Use" style="endArrow=open;endSize=12;dashed=1;html=1;rounded=0;exitX=1;exitY=0.5;exitDx=0;exitDy=0;entryX=0.431;entryY=-0.014;entryDx=0;entryDy=0;entryPerimeter=0;" edge="1" parent="iyEZ0BcaZ3wanud6Fexl-12" source="xzQSS38ygDuXOROJ9pQp-3" target="xzQSS38ygDuXOROJ9pQp-16">
          <mxGeometry width="160" relative="1" as="geometry">
            <mxPoint x="210" y="420" as="sourcePoint" />
            <mxPoint x="370" y="420" as="targetPoint" />
          </mxGeometry>
        </mxCell>
        <mxCell id="xzQSS38ygDuXOROJ9pQp-27" value="Use" style="endArrow=open;endSize=12;dashed=1;html=1;rounded=0;exitX=0;exitY=0.5;exitDx=0;exitDy=0;entryX=0.5;entryY=0;entryDx=0;entryDy=0;" edge="1" parent="iyEZ0BcaZ3wanud6Fexl-12" source="xzQSS38ygDuXOROJ9pQp-4" target="xzQSS38ygDuXOROJ9pQp-16">
          <mxGeometry width="160" relative="1" as="geometry">
            <mxPoint x="200" y="230" as="sourcePoint" />
            <mxPoint x="266.0300000000002" y="279.02" as="targetPoint" />
          </mxGeometry>
        </mxCell>
        <mxCell id="xzQSS38ygDuXOROJ9pQp-25" value="Use" style="endArrow=open;endSize=12;dashed=1;html=1;rounded=0;exitX=1;exitY=0.5;exitDx=0;exitDy=0;entryX=0.454;entryY=-0.029;entryDx=0;entryDy=0;entryPerimeter=0;" edge="1" parent="iyEZ0BcaZ3wanud6Fexl-12" source="xzQSS38ygDuXOROJ9pQp-1" target="xzQSS38ygDuXOROJ9pQp-16">
          <mxGeometry width="160" relative="1" as="geometry">
            <mxPoint x="180" y="210" as="sourcePoint" />
            <mxPoint x="310" y="230" as="targetPoint" />
          </mxGeometry>
        </mxCell>
        <mxCell id="xzQSS38ygDuXOROJ9pQp-26" value="Use" style="endArrow=open;endSize=12;dashed=1;html=1;rounded=0;exitX=0;exitY=0.5;exitDx=0;exitDy=0;entryX=0.5;entryY=0;entryDx=0;entryDy=0;" edge="1" parent="iyEZ0BcaZ3wanud6Fexl-12" source="xzQSS38ygDuXOROJ9pQp-2" target="xzQSS38ygDuXOROJ9pQp-16">
          <mxGeometry width="160" relative="1" as="geometry">
            <mxPoint x="190" y="220" as="sourcePoint" />
            <mxPoint x="170" y="250" as="targetPoint" />
          </mxGeometry>
        </mxCell>
        <mxCell id="iyEZ0BcaZ3wanud6Fexl-13" value="Информационная система" style="swimlane;fillColor=#FFFFFF;" parent="1" vertex="1">
          <mxGeometry x="1130" y="370" width="560" height="370" as="geometry" />
        </mxCell>
        <mxCell id="iyEZ0BcaZ3wanud6Fexl-15" value="Сайт с ИС" style="rounded=0;whiteSpace=wrap;html=1;fillColor=#FFFFFF;" parent="iyEZ0BcaZ3wanud6Fexl-13" vertex="1">
          <mxGeometry x="320" y="140" width="120" height="60" as="geometry" />
        </mxCell>
        <mxCell id="iyEZ0BcaZ3wanud6Fexl-16" value="Обзор общей карты города в виде областей" style="rounded=0;whiteSpace=wrap;html=1;fillColor=#FFFFFF;" parent="iyEZ0BcaZ3wanud6Fexl-13" vertex="1">
          <mxGeometry x="50" y="130" width="120" height="60" as="geometry" />
        </mxCell>
        <mxCell id="xzQSS38ygDuXOROJ9pQp-22" value="" style="endArrow=open;endFill=1;endSize=12;html=1;rounded=0;exitX=0;exitY=0.5;exitDx=0;exitDy=0;entryX=1.05;entryY=0.617;entryDx=0;entryDy=0;entryPerimeter=0;" edge="1" parent="iyEZ0BcaZ3wanud6Fexl-13" source="iyEZ0BcaZ3wanud6Fexl-15" target="iyEZ0BcaZ3wanud6Fexl-16">
          <mxGeometry width="160" relative="1" as="geometry">
            <mxPoint x="-190" y="110" as="sourcePoint" />
            <mxPoint x="-30" y="110" as="targetPoint" />
          </mxGeometry>
        </mxCell>
        <mxCell id="xzQSS38ygDuXOROJ9pQp-32" value="" style="endArrow=block;dashed=1;endFill=0;endSize=12;html=1;rounded=0;exitX=0;exitY=0.5;exitDx=0;exitDy=0;entryX=0.994;entryY=0.175;entryDx=0;entryDy=0;entryPerimeter=0;" edge="1" parent="1" source="iyEZ0BcaZ3wanud6Fexl-16" target="xzQSS38ygDuXOROJ9pQp-28">
          <mxGeometry width="160" relative="1" as="geometry">
            <mxPoint x="790" y="500" as="sourcePoint" />
            <mxPoint x="950" y="500" as="targetPoint" />
          </mxGeometry>
        </mxCell>
        <mxCell id="xzQSS38ygDuXOROJ9pQp-38" value="Extends" style="endArrow=block;endSize=16;endFill=0;html=1;rounded=0;exitX=0.408;exitY=1.043;exitDx=0;exitDy=0;exitPerimeter=0;entryX=1;entryY=0.5;entryDx=0;entryDy=0;" edge="1" parent="1" source="xzQSS38ygDuXOROJ9pQp-16" target="xzQSS38ygDuXOROJ9pQp-37">
          <mxGeometry width="160" relative="1" as="geometry">
            <mxPoint x="380" y="470" as="sourcePoint" />
            <mxPoint x="540" y="470" as="targetPoint" />
          </mxGeometry>
        </mxCell>
      </root>
    </mxGraphModel>
  </diagram>
</mxfile>
